<mxfile host="Electron" agent="Mozilla/5.0 (Windows NT 10.0; Win64; x64) AppleWebKit/537.36 (KHTML, like Gecko) draw.io/26.2.2 Chrome/134.0.6998.178 Electron/35.1.2 Safari/537.36" version="26.2.2">
  <diagram name="第 1 页" id="lluYYr4IG1YigDqNecSf">
    <mxGraphModel dx="816" dy="500" grid="1" gridSize="10" guides="1" tooltips="1" connect="1" arrows="1" fold="1" page="1" pageScale="1" pageWidth="3300" pageHeight="2339" math="0" shadow="0">
      <root>
        <mxCell id="0" />
        <mxCell id="1" parent="0" />
        <mxCell id="UxfL7kgDPSItxbxDu4Sh-183" value="主键B+索引树" style="rounded=0;whiteSpace=wrap;html=1;fillColor=#f5f5f5;strokeColor=#666666;fontColor=#333333;verticalAlign=top;" vertex="1" parent="1">
          <mxGeometry x="600" y="760" width="540" height="400" as="geometry" />
        </mxCell>
        <mxCell id="UxfL7kgDPSItxbxDu4Sh-1" value="&lt;p&gt;&lt;font face=&quot;Helvetica&quot;&gt;tomcat&lt;/font&gt;&lt;/p&gt;" style="whiteSpace=wrap;html=1;fillColor=#ffe6cc;strokeColor=#d79b00;align=center;verticalAlign=top;" vertex="1" parent="1">
          <mxGeometry x="210" y="133.13" width="230" height="213.75" as="geometry" />
        </mxCell>
        <mxCell id="UxfL7kgDPSItxbxDu4Sh-4" value="数据库连接池" style="whiteSpace=wrap;html=1;verticalAlign=top;fillColor=#f8cecc;strokeColor=#b85450;opacity=80;" vertex="1" parent="1">
          <mxGeometry x="320" y="185" width="100" height="140" as="geometry" />
        </mxCell>
        <mxCell id="UxfL7kgDPSItxbxDu4Sh-35" value="应用端" style="text;html=1;align=center;verticalAlign=middle;whiteSpace=wrap;rounded=0;" vertex="1" parent="1">
          <mxGeometry x="290" y="70" width="60" height="30" as="geometry" />
        </mxCell>
        <mxCell id="UxfL7kgDPSItxbxDu4Sh-38" value="Connection A" style="rounded=1;whiteSpace=wrap;html=1;fillColor=#dae8fc;strokeColor=#6c8ebf;" vertex="1" parent="1">
          <mxGeometry x="330" y="220" width="80" height="40" as="geometry" />
        </mxCell>
        <mxCell id="UxfL7kgDPSItxbxDu4Sh-39" value="Connection B" style="rounded=1;whiteSpace=wrap;html=1;fillColor=#dae8fc;strokeColor=#6c8ebf;" vertex="1" parent="1">
          <mxGeometry x="330" y="272.5" width="80" height="40" as="geometry" />
        </mxCell>
        <mxCell id="UxfL7kgDPSItxbxDu4Sh-55" style="edgeStyle=orthogonalEdgeStyle;rounded=0;orthogonalLoop=1;jettySize=auto;html=1;" edge="1" parent="1" source="UxfL7kgDPSItxbxDu4Sh-54" target="UxfL7kgDPSItxbxDu4Sh-38">
          <mxGeometry relative="1" as="geometry" />
        </mxCell>
        <mxCell id="UxfL7kgDPSItxbxDu4Sh-54" value="线程A" style="rounded=0;whiteSpace=wrap;html=1;fillColor=#fff2cc;strokeColor=#d6b656;" vertex="1" parent="1">
          <mxGeometry x="230" y="225.01" width="60" height="30" as="geometry" />
        </mxCell>
        <mxCell id="UxfL7kgDPSItxbxDu4Sh-59" style="edgeStyle=orthogonalEdgeStyle;rounded=0;orthogonalLoop=1;jettySize=auto;html=1;" edge="1" parent="1" source="UxfL7kgDPSItxbxDu4Sh-58" target="UxfL7kgDPSItxbxDu4Sh-39">
          <mxGeometry relative="1" as="geometry" />
        </mxCell>
        <mxCell id="UxfL7kgDPSItxbxDu4Sh-58" value="线程B" style="rounded=0;whiteSpace=wrap;html=1;fillColor=#fff2cc;strokeColor=#d6b656;" vertex="1" parent="1">
          <mxGeometry x="230" y="277.5" width="60" height="30" as="geometry" />
        </mxCell>
        <mxCell id="UxfL7kgDPSItxbxDu4Sh-64" style="edgeStyle=orthogonalEdgeStyle;rounded=0;orthogonalLoop=1;jettySize=auto;html=1;entryX=0;entryY=0.5;entryDx=0;entryDy=0;" edge="1" parent="1" source="UxfL7kgDPSItxbxDu4Sh-60" target="UxfL7kgDPSItxbxDu4Sh-54">
          <mxGeometry relative="1" as="geometry" />
        </mxCell>
        <mxCell id="UxfL7kgDPSItxbxDu4Sh-60" value="用户A" style="shape=umlActor;verticalLabelPosition=bottom;verticalAlign=top;html=1;outlineConnect=0;" vertex="1" parent="1">
          <mxGeometry x="120" y="222.5" width="20" height="35" as="geometry" />
        </mxCell>
        <mxCell id="UxfL7kgDPSItxbxDu4Sh-63" style="edgeStyle=orthogonalEdgeStyle;rounded=0;orthogonalLoop=1;jettySize=auto;html=1;entryX=0;entryY=0.5;entryDx=0;entryDy=0;" edge="1" parent="1" source="UxfL7kgDPSItxbxDu4Sh-62" target="UxfL7kgDPSItxbxDu4Sh-58">
          <mxGeometry relative="1" as="geometry" />
        </mxCell>
        <mxCell id="UxfL7kgDPSItxbxDu4Sh-62" value="用户B" style="shape=umlActor;verticalLabelPosition=bottom;verticalAlign=top;html=1;outlineConnect=0;" vertex="1" parent="1">
          <mxGeometry x="120" y="275" width="20" height="35" as="geometry" />
        </mxCell>
        <mxCell id="UxfL7kgDPSItxbxDu4Sh-66" value="&lt;p&gt;&lt;font face=&quot;Helvetica&quot;&gt;MYSQL&lt;/font&gt;&lt;/p&gt;" style="whiteSpace=wrap;html=1;fillColor=#ffe6cc;strokeColor=#d79b00;align=center;verticalAlign=top;" vertex="1" parent="1">
          <mxGeometry x="600" y="144.53" width="1035" height="235.94" as="geometry" />
        </mxCell>
        <mxCell id="UxfL7kgDPSItxbxDu4Sh-68" value="数据库连接池" style="whiteSpace=wrap;html=1;verticalAlign=top;fillColor=#f8cecc;strokeColor=#b85450;opacity=80;" vertex="1" parent="1">
          <mxGeometry x="710" y="185" width="100" height="140" as="geometry" />
        </mxCell>
        <mxCell id="UxfL7kgDPSItxbxDu4Sh-81" style="edgeStyle=orthogonalEdgeStyle;rounded=0;orthogonalLoop=1;jettySize=auto;html=1;" edge="1" parent="1" source="UxfL7kgDPSItxbxDu4Sh-69" target="UxfL7kgDPSItxbxDu4Sh-76">
          <mxGeometry relative="1" as="geometry" />
        </mxCell>
        <mxCell id="UxfL7kgDPSItxbxDu4Sh-69" value="Connection A" style="rounded=1;whiteSpace=wrap;html=1;fillColor=#dae8fc;strokeColor=#6c8ebf;" vertex="1" parent="1">
          <mxGeometry x="720" y="220" width="80" height="40" as="geometry" />
        </mxCell>
        <mxCell id="UxfL7kgDPSItxbxDu4Sh-79" style="edgeStyle=orthogonalEdgeStyle;rounded=0;orthogonalLoop=1;jettySize=auto;html=1;entryX=0;entryY=0.5;entryDx=0;entryDy=0;" edge="1" parent="1" source="UxfL7kgDPSItxbxDu4Sh-70" target="UxfL7kgDPSItxbxDu4Sh-77">
          <mxGeometry relative="1" as="geometry" />
        </mxCell>
        <mxCell id="UxfL7kgDPSItxbxDu4Sh-70" value="Connection B" style="rounded=1;whiteSpace=wrap;html=1;fillColor=#dae8fc;strokeColor=#6c8ebf;" vertex="1" parent="1">
          <mxGeometry x="720" y="272.5" width="80" height="40" as="geometry" />
        </mxCell>
        <mxCell id="UxfL7kgDPSItxbxDu4Sh-71" style="edgeStyle=orthogonalEdgeStyle;rounded=0;orthogonalLoop=1;jettySize=auto;html=1;entryX=0;entryY=0.5;entryDx=0;entryDy=0;" edge="1" parent="1" source="UxfL7kgDPSItxbxDu4Sh-38" target="UxfL7kgDPSItxbxDu4Sh-69">
          <mxGeometry relative="1" as="geometry" />
        </mxCell>
        <mxCell id="UxfL7kgDPSItxbxDu4Sh-74" style="edgeStyle=orthogonalEdgeStyle;rounded=0;orthogonalLoop=1;jettySize=auto;html=1;entryX=0;entryY=0.5;entryDx=0;entryDy=0;" edge="1" parent="1" source="UxfL7kgDPSItxbxDu4Sh-39" target="UxfL7kgDPSItxbxDu4Sh-70">
          <mxGeometry relative="1" as="geometry" />
        </mxCell>
        <mxCell id="UxfL7kgDPSItxbxDu4Sh-91" style="edgeStyle=orthogonalEdgeStyle;rounded=0;orthogonalLoop=1;jettySize=auto;html=1;entryX=0;entryY=0.5;entryDx=0;entryDy=0;" edge="1" parent="1" source="UxfL7kgDPSItxbxDu4Sh-76" target="UxfL7kgDPSItxbxDu4Sh-90">
          <mxGeometry relative="1" as="geometry" />
        </mxCell>
        <mxCell id="UxfL7kgDPSItxbxDu4Sh-76" value="线程A" style="rounded=0;whiteSpace=wrap;html=1;fillColor=#fff2cc;strokeColor=#d6b656;" vertex="1" parent="1">
          <mxGeometry x="850" y="225" width="60" height="30" as="geometry" />
        </mxCell>
        <mxCell id="UxfL7kgDPSItxbxDu4Sh-92" style="edgeStyle=orthogonalEdgeStyle;rounded=0;orthogonalLoop=1;jettySize=auto;html=1;entryX=0;entryY=0.5;entryDx=0;entryDy=0;" edge="1" parent="1" source="UxfL7kgDPSItxbxDu4Sh-77" target="UxfL7kgDPSItxbxDu4Sh-90">
          <mxGeometry relative="1" as="geometry" />
        </mxCell>
        <mxCell id="UxfL7kgDPSItxbxDu4Sh-77" value="线程B" style="rounded=0;whiteSpace=wrap;html=1;fillColor=#fff2cc;strokeColor=#d6b656;" vertex="1" parent="1">
          <mxGeometry x="850" y="277.5" width="60" height="30" as="geometry" />
        </mxCell>
        <mxCell id="UxfL7kgDPSItxbxDu4Sh-94" style="edgeStyle=orthogonalEdgeStyle;rounded=0;orthogonalLoop=1;jettySize=auto;html=1;" edge="1" parent="1" source="UxfL7kgDPSItxbxDu4Sh-90" target="UxfL7kgDPSItxbxDu4Sh-93">
          <mxGeometry relative="1" as="geometry" />
        </mxCell>
        <mxCell id="UxfL7kgDPSItxbxDu4Sh-103" value="解析SQL" style="edgeLabel;html=1;align=center;verticalAlign=middle;resizable=0;points=[];" vertex="1" connectable="0" parent="UxfL7kgDPSItxbxDu4Sh-94">
          <mxGeometry x="-0.1486" y="-1" relative="1" as="geometry">
            <mxPoint as="offset" />
          </mxGeometry>
        </mxCell>
        <mxCell id="UxfL7kgDPSItxbxDu4Sh-90" value="SQL接口" style="rounded=0;whiteSpace=wrap;html=1;fillColor=#fff2cc;strokeColor=#d6b656;" vertex="1" parent="1">
          <mxGeometry x="970" y="247.5" width="80" height="30" as="geometry" />
        </mxCell>
        <mxCell id="UxfL7kgDPSItxbxDu4Sh-97" style="edgeStyle=orthogonalEdgeStyle;rounded=0;orthogonalLoop=1;jettySize=auto;html=1;" edge="1" parent="1" source="UxfL7kgDPSItxbxDu4Sh-93" target="UxfL7kgDPSItxbxDu4Sh-96">
          <mxGeometry relative="1" as="geometry" />
        </mxCell>
        <mxCell id="UxfL7kgDPSItxbxDu4Sh-104" value="查询优化" style="edgeLabel;html=1;align=center;verticalAlign=middle;resizable=0;points=[];" vertex="1" connectable="0" parent="UxfL7kgDPSItxbxDu4Sh-97">
          <mxGeometry x="-0.2343" y="-1" relative="1" as="geometry">
            <mxPoint as="offset" />
          </mxGeometry>
        </mxCell>
        <mxCell id="UxfL7kgDPSItxbxDu4Sh-93" value="SQL解析器" style="rounded=0;whiteSpace=wrap;html=1;fillColor=#fff2cc;strokeColor=#d6b656;" vertex="1" parent="1">
          <mxGeometry x="1190" y="247.5" width="80" height="30" as="geometry" />
        </mxCell>
        <mxCell id="UxfL7kgDPSItxbxDu4Sh-100" style="edgeStyle=orthogonalEdgeStyle;rounded=0;orthogonalLoop=1;jettySize=auto;html=1;" edge="1" parent="1" source="UxfL7kgDPSItxbxDu4Sh-96" target="UxfL7kgDPSItxbxDu4Sh-99">
          <mxGeometry relative="1" as="geometry" />
        </mxCell>
        <mxCell id="UxfL7kgDPSItxbxDu4Sh-105" value="调用接口执行SQL" style="edgeLabel;html=1;align=center;verticalAlign=middle;resizable=0;points=[];" vertex="1" connectable="0" parent="UxfL7kgDPSItxbxDu4Sh-100">
          <mxGeometry x="-0.2608" y="-2" relative="1" as="geometry">
            <mxPoint as="offset" />
          </mxGeometry>
        </mxCell>
        <mxCell id="UxfL7kgDPSItxbxDu4Sh-96" value="查询优化器" style="rounded=0;whiteSpace=wrap;html=1;fillColor=#fff2cc;strokeColor=#d6b656;" vertex="1" parent="1">
          <mxGeometry x="1422.5" y="247.5" width="80" height="30" as="geometry" />
        </mxCell>
        <mxCell id="UxfL7kgDPSItxbxDu4Sh-99" value="执行器&amp;nbsp;&lt;span style=&quot;white-space: pre;&quot;&gt;&#x9;&lt;/span&gt;" style="rounded=0;whiteSpace=wrap;html=1;fillColor=#fff2cc;strokeColor=#d6b656;align=center;" vertex="1" parent="1">
          <mxGeometry x="1422.5" y="400" width="80" height="30" as="geometry" />
        </mxCell>
        <mxCell id="UxfL7kgDPSItxbxDu4Sh-110" value="存储引擎" style="rounded=0;whiteSpace=wrap;html=1;fillColor=#fff2cc;strokeColor=#d6b656;verticalAlign=top;" vertex="1" parent="1">
          <mxGeometry x="1242.5" y="520" width="440" height="250" as="geometry" />
        </mxCell>
        <mxCell id="UxfL7kgDPSItxbxDu4Sh-111" value="InnoDB&amp;nbsp;" style="rounded=0;whiteSpace=wrap;html=1;fillColor=#ffe6cc;strokeColor=#d79b00;verticalAlign=top;" vertex="1" parent="1">
          <mxGeometry x="1262.5" y="550" width="400" height="210" as="geometry" />
        </mxCell>
        <mxCell id="UxfL7kgDPSItxbxDu4Sh-141" style="edgeStyle=orthogonalEdgeStyle;rounded=0;orthogonalLoop=1;jettySize=auto;html=1;exitX=0.5;exitY=0;exitDx=0;exitDy=0;entryX=0.5;entryY=1;entryDx=0;entryDy=0;" edge="1" parent="1" source="UxfL7kgDPSItxbxDu4Sh-117" target="UxfL7kgDPSItxbxDu4Sh-112">
          <mxGeometry relative="1" as="geometry" />
        </mxCell>
        <mxCell id="UxfL7kgDPSItxbxDu4Sh-143" value="1、从磁盘文件中读取&lt;div&gt;数据到缓冲池中&lt;/div&gt;" style="edgeLabel;html=1;align=center;verticalAlign=middle;resizable=0;points=[];" vertex="1" connectable="0" parent="UxfL7kgDPSItxbxDu4Sh-141">
          <mxGeometry x="-0.0513" y="-1" relative="1" as="geometry">
            <mxPoint as="offset" />
          </mxGeometry>
        </mxCell>
        <mxCell id="UxfL7kgDPSItxbxDu4Sh-112" value="Buffre Pool" style="rounded=0;whiteSpace=wrap;html=1;fillColor=#f8cecc;strokeColor=#b85450;flipV=1;" vertex="1" parent="1">
          <mxGeometry x="1282.5" y="590" width="140" height="110" as="geometry" />
        </mxCell>
        <mxCell id="UxfL7kgDPSItxbxDu4Sh-114" value="" style="rounded=0;whiteSpace=wrap;html=1;fillColor=#d5e8d4;strokeColor=#82b366;" vertex="1" parent="1">
          <mxGeometry x="1440" y="710" width="90" height="40" as="geometry" />
        </mxCell>
        <mxCell id="UxfL7kgDPSItxbxDu4Sh-117" value="磁盘文件，数据页" style="whiteSpace=wrap;html=1;fillColor=#fff2cc;strokeColor=#d6b656;verticalAlign=top;" vertex="1" parent="1">
          <mxGeometry x="1227.5" y="810" width="250" height="350" as="geometry" />
        </mxCell>
        <mxCell id="UxfL7kgDPSItxbxDu4Sh-126" value="Buffre Pool" style="rounded=0;whiteSpace=wrap;html=1;fillColor=#f8cecc;strokeColor=#b85450;" vertex="1" parent="1">
          <mxGeometry x="1505" y="590" width="140" height="110" as="geometry" />
        </mxCell>
        <mxCell id="UxfL7kgDPSItxbxDu4Sh-128" style="edgeStyle=orthogonalEdgeStyle;rounded=0;orthogonalLoop=1;jettySize=auto;html=1;entryX=0.5;entryY=0;entryDx=0;entryDy=0;" edge="1" parent="1" source="UxfL7kgDPSItxbxDu4Sh-99" target="UxfL7kgDPSItxbxDu4Sh-112">
          <mxGeometry relative="1" as="geometry" />
        </mxCell>
        <mxCell id="UxfL7kgDPSItxbxDu4Sh-129" style="edgeStyle=orthogonalEdgeStyle;rounded=0;orthogonalLoop=1;jettySize=auto;html=1;exitX=0.5;exitY=1;exitDx=0;exitDy=0;" edge="1" parent="1" source="UxfL7kgDPSItxbxDu4Sh-99" target="UxfL7kgDPSItxbxDu4Sh-126">
          <mxGeometry relative="1" as="geometry" />
        </mxCell>
        <mxCell id="UxfL7kgDPSItxbxDu4Sh-144" value="" style="rounded=0;whiteSpace=wrap;html=1;fillColor=#ffe6cc;strokeColor=#d79b00;" vertex="1" parent="1">
          <mxGeometry x="1250" y="840" width="210" height="300" as="geometry" />
        </mxCell>
        <mxCell id="UxfL7kgDPSItxbxDu4Sh-145" value="文件头" style="rounded=0;whiteSpace=wrap;html=1;fillColor=#b1ddf0;strokeColor=#10739e;" vertex="1" parent="1">
          <mxGeometry x="1280" y="855" width="150" height="30" as="geometry" />
        </mxCell>
        <mxCell id="UxfL7kgDPSItxbxDu4Sh-159" style="rounded=0;orthogonalLoop=1;jettySize=auto;html=1;exitX=0.5;exitY=1;exitDx=0;exitDy=0;entryX=0.5;entryY=0;entryDx=0;entryDy=0;endArrow=none;startFill=0;" edge="1" parent="1" source="UxfL7kgDPSItxbxDu4Sh-146" target="UxfL7kgDPSItxbxDu4Sh-150">
          <mxGeometry relative="1" as="geometry" />
        </mxCell>
        <mxCell id="UxfL7kgDPSItxbxDu4Sh-160" style="rounded=0;orthogonalLoop=1;jettySize=auto;html=1;exitX=0.5;exitY=1;exitDx=0;exitDy=0;entryX=0.5;entryY=0;entryDx=0;entryDy=0;endArrow=none;startFill=0;" edge="1" parent="1" source="UxfL7kgDPSItxbxDu4Sh-146" target="UxfL7kgDPSItxbxDu4Sh-151">
          <mxGeometry relative="1" as="geometry" />
        </mxCell>
        <mxCell id="UxfL7kgDPSItxbxDu4Sh-146" value="ROOT" style="ellipse;whiteSpace=wrap;html=1;aspect=fixed;fillColor=#dae8fc;strokeColor=#6c8ebf;" vertex="1" parent="1">
          <mxGeometry x="850" y="790" width="40" height="40" as="geometry" />
        </mxCell>
        <mxCell id="UxfL7kgDPSItxbxDu4Sh-161" style="rounded=0;orthogonalLoop=1;jettySize=auto;html=1;entryX=0.5;entryY=0;entryDx=0;entryDy=0;endArrow=none;startFill=0;exitX=0.5;exitY=1;exitDx=0;exitDy=0;" edge="1" parent="1" source="UxfL7kgDPSItxbxDu4Sh-150" target="UxfL7kgDPSItxbxDu4Sh-153">
          <mxGeometry relative="1" as="geometry">
            <mxPoint x="720" y="950" as="sourcePoint" />
          </mxGeometry>
        </mxCell>
        <mxCell id="UxfL7kgDPSItxbxDu4Sh-165" style="rounded=0;orthogonalLoop=1;jettySize=auto;html=1;exitX=0.5;exitY=1;exitDx=0;exitDy=0;entryX=0.5;entryY=0;entryDx=0;entryDy=0;endArrow=none;startFill=0;" edge="1" parent="1" source="UxfL7kgDPSItxbxDu4Sh-150" target="UxfL7kgDPSItxbxDu4Sh-155">
          <mxGeometry relative="1" as="geometry" />
        </mxCell>
        <mxCell id="UxfL7kgDPSItxbxDu4Sh-150" value="索引值" style="whiteSpace=wrap;html=1;aspect=fixed;fillColor=#dae8fc;strokeColor=#6c8ebf;" vertex="1" parent="1">
          <mxGeometry x="690" y="880" width="80" height="80" as="geometry" />
        </mxCell>
        <mxCell id="UxfL7kgDPSItxbxDu4Sh-167" style="rounded=0;orthogonalLoop=1;jettySize=auto;html=1;exitX=0.5;exitY=1;exitDx=0;exitDy=0;entryX=0.5;entryY=0;entryDx=0;entryDy=0;endArrow=none;startFill=0;" edge="1" parent="1" source="UxfL7kgDPSItxbxDu4Sh-151" target="UxfL7kgDPSItxbxDu4Sh-157">
          <mxGeometry relative="1" as="geometry" />
        </mxCell>
        <mxCell id="UxfL7kgDPSItxbxDu4Sh-168" style="rounded=0;orthogonalLoop=1;jettySize=auto;html=1;entryX=0.5;entryY=0;entryDx=0;entryDy=0;exitX=0.5;exitY=1;exitDx=0;exitDy=0;endArrow=none;startFill=0;" edge="1" parent="1" source="UxfL7kgDPSItxbxDu4Sh-151" target="UxfL7kgDPSItxbxDu4Sh-158">
          <mxGeometry relative="1" as="geometry" />
        </mxCell>
        <mxCell id="UxfL7kgDPSItxbxDu4Sh-151" value="索引值" style="whiteSpace=wrap;html=1;aspect=fixed;fillColor=#dae8fc;strokeColor=#6c8ebf;" vertex="1" parent="1">
          <mxGeometry x="950" y="880" width="80" height="80" as="geometry" />
        </mxCell>
        <mxCell id="UxfL7kgDPSItxbxDu4Sh-170" style="edgeStyle=orthogonalEdgeStyle;rounded=0;orthogonalLoop=1;jettySize=auto;html=1;exitX=1;exitY=0.25;exitDx=0;exitDy=0;entryX=0;entryY=0.25;entryDx=0;entryDy=0;" edge="1" parent="1" source="UxfL7kgDPSItxbxDu4Sh-153" target="UxfL7kgDPSItxbxDu4Sh-155">
          <mxGeometry relative="1" as="geometry" />
        </mxCell>
        <mxCell id="UxfL7kgDPSItxbxDu4Sh-153" value="完整数据" style="whiteSpace=wrap;html=1;aspect=fixed;fillColor=#f8cecc;strokeColor=#b85450;" vertex="1" parent="1">
          <mxGeometry x="620" y="1030" width="80" height="80" as="geometry" />
        </mxCell>
        <mxCell id="UxfL7kgDPSItxbxDu4Sh-171" style="edgeStyle=orthogonalEdgeStyle;rounded=0;orthogonalLoop=1;jettySize=auto;html=1;exitX=0;exitY=0.75;exitDx=0;exitDy=0;entryX=1;entryY=0.75;entryDx=0;entryDy=0;" edge="1" parent="1" source="UxfL7kgDPSItxbxDu4Sh-155" target="UxfL7kgDPSItxbxDu4Sh-153">
          <mxGeometry relative="1" as="geometry" />
        </mxCell>
        <mxCell id="UxfL7kgDPSItxbxDu4Sh-172" style="edgeStyle=orthogonalEdgeStyle;rounded=0;orthogonalLoop=1;jettySize=auto;html=1;exitX=1;exitY=0.25;exitDx=0;exitDy=0;entryX=0;entryY=0.25;entryDx=0;entryDy=0;" edge="1" parent="1" source="UxfL7kgDPSItxbxDu4Sh-155" target="UxfL7kgDPSItxbxDu4Sh-157">
          <mxGeometry relative="1" as="geometry" />
        </mxCell>
        <mxCell id="UxfL7kgDPSItxbxDu4Sh-155" value="完整数据" style="whiteSpace=wrap;html=1;aspect=fixed;fillColor=#f8cecc;strokeColor=#b85450;" vertex="1" parent="1">
          <mxGeometry x="760" y="1030" width="80" height="80" as="geometry" />
        </mxCell>
        <mxCell id="UxfL7kgDPSItxbxDu4Sh-173" style="edgeStyle=orthogonalEdgeStyle;rounded=0;orthogonalLoop=1;jettySize=auto;html=1;exitX=0;exitY=0.75;exitDx=0;exitDy=0;entryX=1;entryY=0.75;entryDx=0;entryDy=0;" edge="1" parent="1" source="UxfL7kgDPSItxbxDu4Sh-157" target="UxfL7kgDPSItxbxDu4Sh-155">
          <mxGeometry relative="1" as="geometry" />
        </mxCell>
        <mxCell id="UxfL7kgDPSItxbxDu4Sh-174" style="edgeStyle=orthogonalEdgeStyle;rounded=0;orthogonalLoop=1;jettySize=auto;html=1;exitX=1;exitY=0.25;exitDx=0;exitDy=0;entryX=0;entryY=0.25;entryDx=0;entryDy=0;" edge="1" parent="1" source="UxfL7kgDPSItxbxDu4Sh-157" target="UxfL7kgDPSItxbxDu4Sh-158">
          <mxGeometry relative="1" as="geometry" />
        </mxCell>
        <mxCell id="UxfL7kgDPSItxbxDu4Sh-175" style="edgeStyle=orthogonalEdgeStyle;rounded=0;orthogonalLoop=1;jettySize=auto;html=1;exitX=1;exitY=0.75;exitDx=0;exitDy=0;entryX=0;entryY=0.75;entryDx=0;entryDy=0;" edge="1" parent="1" source="UxfL7kgDPSItxbxDu4Sh-157" target="UxfL7kgDPSItxbxDu4Sh-158">
          <mxGeometry relative="1" as="geometry" />
        </mxCell>
        <mxCell id="UxfL7kgDPSItxbxDu4Sh-157" value="完整数据" style="whiteSpace=wrap;html=1;aspect=fixed;fillColor=#f8cecc;strokeColor=#b85450;" vertex="1" parent="1">
          <mxGeometry x="900" y="1030" width="80" height="80" as="geometry" />
        </mxCell>
        <mxCell id="UxfL7kgDPSItxbxDu4Sh-158" value="完整数据" style="whiteSpace=wrap;html=1;aspect=fixed;fillColor=#f8cecc;strokeColor=#b85450;" vertex="1" parent="1">
          <mxGeometry x="1020" y="1030" width="80" height="80" as="geometry" />
        </mxCell>
        <mxCell id="UxfL7kgDPSItxbxDu4Sh-177" value="页头" style="rounded=0;whiteSpace=wrap;html=1;fillColor=#b1ddf0;strokeColor=#10739e;" vertex="1" parent="1">
          <mxGeometry x="1280" y="885" width="150" height="30" as="geometry" />
        </mxCell>
        <mxCell id="UxfL7kgDPSItxbxDu4Sh-178" value="最大/最小值" style="rounded=0;whiteSpace=wrap;html=1;fillColor=#b1ddf0;strokeColor=#10739e;" vertex="1" parent="1">
          <mxGeometry x="1280" y="915" width="150" height="30" as="geometry" />
        </mxCell>
        <mxCell id="UxfL7kgDPSItxbxDu4Sh-169" style="edgeStyle=orthogonalEdgeStyle;rounded=0;orthogonalLoop=1;jettySize=auto;html=1;exitX=1;exitY=0.5;exitDx=0;exitDy=0;entryX=0;entryY=0.25;entryDx=0;entryDy=0;curved=1;dashed=1;" edge="1" parent="1" source="UxfL7kgDPSItxbxDu4Sh-158" target="UxfL7kgDPSItxbxDu4Sh-117">
          <mxGeometry relative="1" as="geometry" />
        </mxCell>
        <mxCell id="UxfL7kgDPSItxbxDu4Sh-184" value="空闲记录" style="rounded=0;whiteSpace=wrap;html=1;fillColor=#b1ddf0;strokeColor=#10739e;" vertex="1" parent="1">
          <mxGeometry x="1280" y="1030" width="150" height="30" as="geometry" />
        </mxCell>
        <mxCell id="UxfL7kgDPSItxbxDu4Sh-185" value="页目录" style="rounded=0;whiteSpace=wrap;html=1;fillColor=#b1ddf0;strokeColor=#10739e;" vertex="1" parent="1">
          <mxGeometry x="1280" y="1060" width="150" height="30" as="geometry" />
        </mxCell>
        <mxCell id="UxfL7kgDPSItxbxDu4Sh-186" value="文件尾" style="rounded=0;whiteSpace=wrap;html=1;fillColor=#b1ddf0;strokeColor=#10739e;" vertex="1" parent="1">
          <mxGeometry x="1280" y="1090" width="150" height="30" as="geometry" />
        </mxCell>
        <mxCell id="UxfL7kgDPSItxbxDu4Sh-187" value="用户记录" style="rounded=0;whiteSpace=wrap;html=1;fillColor=#d80073;strokeColor=#A50040;verticalAlign=top;fontColor=#ffffff;" vertex="1" parent="1">
          <mxGeometry x="1280" y="945" width="150" height="85" as="geometry" />
        </mxCell>
        <mxCell id="UxfL7kgDPSItxbxDu4Sh-188" value="第一行记录" style="rounded=0;whiteSpace=wrap;html=1;fillColor=#60a917;fontColor=#ffffff;strokeColor=#2D7600;" vertex="1" parent="1">
          <mxGeometry x="1292.5" y="976.25" width="125" height="17.5" as="geometry" />
        </mxCell>
        <mxCell id="UxfL7kgDPSItxbxDu4Sh-190" value="第二行记录" style="rounded=0;whiteSpace=wrap;html=1;fillColor=#60a917;fontColor=#ffffff;strokeColor=#2D7600;" vertex="1" parent="1">
          <mxGeometry x="1292.5" y="993.75" width="125" height="17.5" as="geometry" />
        </mxCell>
        <mxCell id="UxfL7kgDPSItxbxDu4Sh-191" value="Undo Log" style="rounded=0;whiteSpace=wrap;html=1;fillColor=#d0cee2;strokeColor=#56517e;verticalAlign=top;" vertex="1" parent="1">
          <mxGeometry x="1550" y="840" width="560" height="125" as="geometry" />
        </mxCell>
        <mxCell id="UxfL7kgDPSItxbxDu4Sh-192" style="edgeStyle=orthogonalEdgeStyle;rounded=0;orthogonalLoop=1;jettySize=auto;html=1;exitX=0.75;exitY=1;exitDx=0;exitDy=0;entryX=0.042;entryY=-0.005;entryDx=0;entryDy=0;entryPerimeter=0;" edge="1" parent="1" source="UxfL7kgDPSItxbxDu4Sh-110" target="UxfL7kgDPSItxbxDu4Sh-191">
          <mxGeometry relative="1" as="geometry" />
        </mxCell>
        <mxCell id="UxfL7kgDPSItxbxDu4Sh-193" value="2、在执行SQl修改数据之前，&lt;div&gt;先记录一下undo-Log&lt;/div&gt;" style="edgeLabel;html=1;align=center;verticalAlign=middle;resizable=0;points=[];" vertex="1" connectable="0" parent="UxfL7kgDPSItxbxDu4Sh-192">
          <mxGeometry x="-0.1682" y="2" relative="1" as="geometry">
            <mxPoint as="offset" />
          </mxGeometry>
        </mxCell>
        <mxCell id="UxfL7kgDPSItxbxDu4Sh-194" value="undoLog日志开始位置" style="rounded=0;whiteSpace=wrap;html=1;" vertex="1" parent="1">
          <mxGeometry x="1560" y="870" width="90" height="40" as="geometry" />
        </mxCell>
        <mxCell id="UxfL7kgDPSItxbxDu4Sh-203" value="主键" style="rounded=0;whiteSpace=wrap;html=1;" vertex="1" parent="1">
          <mxGeometry x="1650" y="870" width="90" height="40" as="geometry" />
        </mxCell>
        <mxCell id="UxfL7kgDPSItxbxDu4Sh-204" value="表id" style="rounded=0;whiteSpace=wrap;html=1;" vertex="1" parent="1">
          <mxGeometry x="1740" y="870" width="90" height="40" as="geometry" />
        </mxCell>
        <mxCell id="UxfL7kgDPSItxbxDu4Sh-205" value="" style="rounded=0;whiteSpace=wrap;html=1;" vertex="1" parent="1">
          <mxGeometry x="2010" y="870" width="90" height="40" as="geometry" />
        </mxCell>
        <mxCell id="UxfL7kgDPSItxbxDu4Sh-206" value="" style="rounded=0;whiteSpace=wrap;html=1;" vertex="1" parent="1">
          <mxGeometry x="1830" y="870" width="90" height="40" as="geometry" />
        </mxCell>
        <mxCell id="UxfL7kgDPSItxbxDu4Sh-207" value="" style="rounded=0;whiteSpace=wrap;html=1;" vertex="1" parent="1">
          <mxGeometry x="1920" y="870" width="90" height="40" as="geometry" />
        </mxCell>
      </root>
    </mxGraphModel>
  </diagram>
</mxfile>
